# xmcd CD database file
# Copyright (C) 1993-1998 Ti Kan
#
# Track frame offsets:
#  182
#  18837
#  38632
#  62182
#  83182
#  106655
#  131447
#  154447
#  162812
#  180575
#  202772
#  221152
#  240422
#  260995
#  269962
#
# Disc length: 3939 seconds
#
# Revision: 1
# Processed by: cddbd v1.4b41PL1 Copyright (c) Steve Scherf et al.
# Submitted via: CDWizzard Release:4.60
#
DISCID=d00f610f
DTITLE=Classic Example - Classic Example
DYEAR=1900
DGENRE=
TTITLE0=Don't make me wait
TTITLE1=I do care
TTITLE2=Never gonna give you up
TTITLE3=Where do i run to
TTITLE4=Toast to our love
TTITLE5=Stay with me tonite
TTITLE6=Lift every voice and sing
TTITLE7=The other side of my bed
TTITLE8=Can you find a place in your heart
TTITLE9=Treat her like a lady
TTITLE10=All your love
TTITLE11=You need love
TTITLE12=She ain't right
TTITLE13=Dear Lisa
TTITLE14=All alone
EXTD=
EXTT0=
EXTT1=
EXTT2=
EXTT3=
EXTT4=
EXTT5=
EXTT6=
EXTT7=
EXTT8=
EXTT9=
EXTT10=
EXTT11=
EXTT12=
EXTT13=
EXTT14=
PLAYORDER=
